<svg width="18" height="18" viewBox="0 0 18 18" fill="none" xmlns="http://www.w3.org/2000/svg">
<path d="M0.62927 7.87833L7.62927 1.2901C8.39937 0.565298 9.60063 0.565297 10.3707 1.2901L17.3707 7.87833C17.7723 8.25628 18 8.78327 18 9.33473V16C18 17.1046 17.1046 18 16 18H11.65C11.4291 18 11.25 17.8209 11.25 17.6V13.1059C11.25 12.885 11.0709 12.7059 10.85 12.7059H7.15C6.92909 12.7059 6.75 12.885 6.75 13.1059V17.6C6.75 17.8209 6.57091 18 6.35 18H2C0.895431 18 0 17.1046 0 16V9.33473C0 8.78327 0.227697 8.25629 0.62927 7.87833Z" fill="white"/>
</svg>
